<svg preserveAspectRatio="none" overflow="visible" style="display: block;" width="552.235" height="174.158" viewBox="0 0 552.235 174.158" fill="none" xmlns="http://www.w3.org/2000/svg">
<path id="Vector" d="M5.60621 160.711L0.554688 158.316V0.554688H534.329L551.63 158.316L546.579 159.514C541.527 160.711 531.424 163.106 520.862 162.507C510.759 161.909 500.656 158.316 490.553 155.921C479.99 153.526 469.887 152.329 459.784 152.927C449.681 153.526 439.578 155.921 429.016 154.724C418.913 153.526 408.81 148.736 398.707 145.742C388.145 142.748 378.041 141.551 367.938 142.15C357.835 142.748 347.732 145.143 337.17 145.742C327.067 146.341 316.964 145.143 306.861 145.143C296.299 145.143 286.196 146.341 276.092 151.73C265.989 157.119 255.886 166.699 245.324 168.495C235.221 170.291 225.118 164.304 215.015 161.31C204.453 158.316 194.35 158.316 184.247 160.711C174.143 163.106 164.04 167.896 153.478 170.89C143.375 173.884 133.272 175.081 123.169 170.89C112.607 166.699 102.504 157.119 92.4006 151.73C82.2976 146.341 72.1945 145.143 61.6322 149.335C51.5292 153.526 41.4261 163.106 31.3231 165.501C20.7608 167.896 10.6577 163.106 5.60621 160.711Z" stroke="black" stroke-width="1.10938" stroke-linecap="round"/>
</svg>
