<?xml version="1.0" encoding="UTF-8"?>
<svg id="Layer_1" data-name="Layer 1" xmlns="http://www.w3.org/2000/svg" viewBox="334 52 724 158">
  <defs>
    <style>
      .cls-1 {
        fill: #ce9e52;
      }

      .cls-2 {
        fill: #ce9e52;
      }

      .cls-3 {
        fill: #e70000;
      }
    </style>
  </defs>
  <g>
    <path class="cls-2" d="M1186.42,109.2c-3.54,0-6.22,2.71-8.06,8.12-1.83,5.41-2.29,11.96-1.37,19.65.92,7.62,2.96,14.14,6.13,19.55,3.17,5.41,6.53,8.12,10.07,8.12s6.15-2.71,8.01-8.12c1.86-5.41,2.3-11.93,1.33-19.55-.98-7.69-3.04-14.23-6.18-19.65-3.14-5.41-6.45-8.12-9.93-8.12M1189.8,171.16c-9.22,0-16.86-3.31-22.94-9.94-6.07-6.63-9.11-14.71-9.11-24.26s3.04-17.73,9.11-24.35c6.07-6.63,13.72-9.94,22.94-9.94s16.95,3.31,23.03,9.94c6.07,6.63,9.11,14.75,9.11,24.35s-3.04,17.63-9.11,24.26c-6.08,6.63-13.75,9.94-23.03,9.94M1227.31,130.82c-.67-.51-1.01-.99-1.01-1.44v-.86c0-.64.52-1.22,1.56-1.73,1.89-1.09,4.27-2.13,7.14-3.12,2.87-.99,4.76-1.49,5.68-1.49,1.59,0,2.53,1.19,2.84,3.55,0,0,.77,5.41.92,5,1.77-4.96,7.12-9.22,12.91-9.22,12.93,0,16.3,11.08,16.3,20.66v21.33c0,.32.06.62.19.91.12.29.32.54.59.77.28.22.49.4.64.53.15.13.41.29.78.48l.55.38c.91.57,1.37,1.28,1.37,2.11v.38c0,.38-.15.74-.46,1.06-.3.32-.64.48-1.01.48h-19.05c-.36,0-.7-.14-1.01-.43-.31-.29-.46-.66-.46-1.11v-.38c0-.64.37-1.28,1.1-1.92.79-.51,1.19-1.6,1.19-3.27v-21.33c0-9.49-2.97-11.91-5.31-11.91-6.68,0-7.51,11.57-7.6,21.04-.06,6.63-.09,12.2-.09,12.2,0,1.41.64,2.5,1.92,3.27.85.71,1.28,1.34,1.28,1.92v.38c0,.38-.15.74-.46,1.06-.31.32-.64.48-1.01.48h-18.95c-.43,0-.79-.14-1.1-.43-.31-.29-.46-.66-.46-1.11v-.38c0-.7.43-1.35,1.28-1.92,1.28-.77,1.92-1.86,1.92-3.27v-29.69c0-1.28-.73-2.27-2.2-2.98M1302.36,127.16c-2.38,0-4.37,1.78-5.95,5.33-1.59,3.55-2.23,7.61-1.92,12.15,0,.45.18.61.55.48l11.45-3.07c1.71-.45,2.56-1.95,2.56-4.52,0-2.75-.6-5.17-1.78-7.25-1.19-2.08-2.83-3.12-4.9-3.12M1278.92,146.67c0-7.43,2.3-13.4,6.91-17.92,4.61-4.52,9.9-6.77,15.89-6.77s10.42,1.68,14.06,5.04c3.63,3.36,5.45,7.35,5.45,11.96,0,3.97-2.14,6.47-6.41,7.49l-18.95,4.99c-.31.13-.43.32-.37.58.79,3.71,2.5,6.44,5.13,8.17,2.62,1.73,5.19,2.59,7.69,2.59,3.17,0,6.19-1.31,9.06-3.94.61-.45,1.16-.67,1.65-.67.67,0,1.27.24,1.78.72.52.48.78,1.07.78,1.78,0,1.41-.67,2.82-2.01,4.23-3.72,4.23-9.07,6.34-16.02,6.34s-12.65-2.21-17.44-6.63c-4.79-4.42-7.19-10.41-7.19-17.96M1401.61,146.28c-1.83,0-3.42.91-4.76,2.74-1.34,1.82-2.02,4.12-2.02,6.87,0,2.24.56,4.15,1.7,5.72,1.13,1.57,2.55,2.35,4.26,2.35,1.83,0,3.39-.9,4.67-2.69,1.28-1.79,1.92-3.94,1.92-6.44v-.48c0-2.18-.56-4.07-1.69-5.67-1.13-1.6-2.49-2.4-4.07-2.4M1395.11,171.07c-5.44,0-9.51-1.25-12.22-3.75-2.72-2.5-4.08-5.89-4.08-10.18,0-4.74,1.74-8.64,5.22-11.72,3.48-3.08,7.81-4.61,13-4.61,4.21,0,7.54,1.19,9.98,3.55.24.26.37.19.37-.19v-1.44c0-4.55-.58-8.36-1.74-11.43-1.16-3.07-2.93-4.61-5.31-4.61-1.16,0-2.2.58-3.11,1.73-.92,1.15-1.38,2.66-1.38,4.52,0,4.04-1.95,6.05-5.86,6.05-2.2,0-3.92-.54-5.17-1.63-1.25-1.09-1.88-2.59-1.88-4.52,0-2.88,1.56-5.48,4.67-7.78,3.11-2.31,7.45-3.46,13-3.46,7.14,0,12.65,1.99,16.53,5.96,3.88,3.97,5.81,8.97,5.81,14.99v19.7c0,1.09.76,2.08,2.29,2.98.61.32.92.8.92,1.44v.96c0,.77-.52,1.32-1.56,1.63-1.34.45-3.19.85-5.54,1.2-2.35.35-4.33.61-5.95.77-1.62.16-2.61.24-2.97.24-.8,0-1.45-.32-1.97-.96-.52-.64-.78-1.5-.78-2.59v-2.88c0-.38-.12-.42-.37-.1-1.16,1.92-2.84,3.43-5.04,4.52-2.2,1.09-4.49,1.63-6.87,1.63M1429.26,105.55v-.87c0-1.15,2.34-2.5,7.01-4.03,4.67-1.54,7.83-2.31,9.48-2.31.61,0,1.14.32,1.6.96.46.64.69,1.51.69,2.59v61.58c0,1.41.64,2.5,1.92,3.26.85.71,1.28,1.35,1.28,1.92v.38c0,.38-.15.74-.46,1.06-.3.32-.64.48-1.01.48h-18.95c-.43,0-.79-.14-1.1-.43-.31-.29-.46-.66-.46-1.1v-.38c0-.7.43-1.35,1.28-1.92,1.28-.77,1.92-1.86,1.92-3.26v-53.51c0-1.15-.73-2.14-2.2-2.98-.67-.38-1.01-.86-1.01-1.44M1454.81,105.55v-.87c0-1.15,2.33-2.5,7-4.03,4.67-1.54,7.83-2.31,9.48-2.31.61,0,1.14.32,1.6.96.46.64.69,1.51.69,2.59v61.58c0,1.41.64,2.5,1.92,3.26.85.71,1.28,1.35,1.28,1.92v.38c0,.38-.15.74-.46,1.06-.31.32-.64.48-1.01.48h-18.95c-.43,0-.79-.14-1.1-.43-.31-.29-.46-.66-.46-1.1v-.38c0-.7.43-1.35,1.28-1.92,1.28-.77,1.92-1.86,1.92-3.26v-53.51c0-1.15-.73-2.14-2.2-2.98-.67-.38-1.01-.86-1.01-1.44"/>
    <path class="cls-3" d="M1159.38,195.18c0-7.55,5.93-13.76,13.56-13.76,4.01,0,7.51,1.66,9.83,4.24l-3.89,3.35c-1.5-1.62-3.62-2.62-5.93-2.62-4.62,0-8.21,4.05-8.21,8.79s3.51,8.9,8.36,8.9c3.47,0,6.9-2.08,6.9-5.16h-7.51v-4.35h13.37c0,9.83-5.43,14.33-12.64,14.33-8.02,0-13.83-6.2-13.83-13.72ZM1190.22,208.44v-26.55h5.36v26.55h-5.36ZM1218.45,186.63h-11.06v6.4h8.79v4.7h-8.79v10.71h-5.36v-26.55h16.41v4.74ZM1240.63,181.89v4.74h-7.32v21.81h-5.36v-21.81h-7.32v-4.74h20ZM1250.94,195.14c0-7.48,5.97-13.72,13.49-13.72,4.51,0,8.44,2.16,10.83,5.51l-4.08,2.97c-1.5-2.12-3.74-3.43-6.55-3.43-4.82,0-8.32,3.93-8.32,8.67s3.47,8.71,8.28,8.71c2.85,0,5.09-1.31,6.59-3.43l4.08,2.97c-2.39,3.35-6.32,5.51-10.83,5.51-7.51,0-13.49-6.2-13.49-13.76ZM1296.03,208.44l-2.16-6.36h-9.94l-2.12,6.36h-5.7l9.9-26.55h5.78l9.86,26.55h-5.63ZM1285.51,197.42h6.78l-3.39-10.06-3.39,10.06ZM1318.14,208.44l-6.32-9.52h-1.81v9.52h-5.36v-26.55h10.6c6.09,0,8.71,4.32,8.71,8.67,0,3.78-2.66,7.48-6.4,8.13l6.86,9.75h-6.28ZM1310.01,186.63v7.98h4.28c3.01,0,4.28-1.81,4.28-3.93s-1.35-4.05-3.85-4.05h-4.7ZM1339.65,181.89c7.63,0,12.06,5.78,12.06,13.33s-4.43,13.22-12.06,13.22h-10.4v-26.55h10.4ZM1339.65,203.7c4.43,0,6.7-3.93,6.7-8.48s-2.27-8.59-6.7-8.59h-5.05v17.07h5.05ZM1355.13,200.73h5.36c.04,1.89,1.89,3.47,4.35,3.47s3.97-1.31,3.97-3.2c0-1.46-1.08-2.5-3.35-3.2l-3.24-.92c-5.82-1.54-6.86-5.05-6.86-7.44,0-4.74,4.08-8.01,9.17-8.01s8.86,3.04,8.86,8.09h-5.36c0-1.89-1.31-3.35-3.62-3.35-2.08,0-3.66,1.39-3.66,3.16,0,.65.19,2,2.97,2.81l2.97.85c4.01,1.19,7.51,3.24,7.51,7.75,0,5.28-4.51,8.17-9.52,8.17-5.66,0-9.56-3.51-9.56-8.17ZM1352.92,156.1c.26,0,.39.1.39.3v7.4c0,1.42-.74,2.57-2.22,3.45-.77.4-1.16.95-1.16,1.62v.4c0,.88.42,1.32,1.25,1.32h20.28c.26,0,.53-.12.82-.35.29-.24.43-.56.43-.96v-.4c0-.61-.42-1.15-1.26-1.62-1.42-.81-2.12-1.96-2.12-3.45v-7.4c0-.2.13-.3.39-.3h2.32c.84,0,1.58-.34,2.22-1.01.64-.67.97-1.58.97-2.74,0-1.08-.32-1.98-.97-2.68-.64-.71-1.38-1.06-2.22-1.06h-2.32c-.26,0-.39-.1-.39-.3v-25.69c0-1.04-1.44-1.72-2.53-.29l-12.93,18.61c-.37.54-.57,1.18-.57,1.83v5.54c0,.2-.13.3-.39.3h-16.51c-.19,0-.26-.1-.19-.3.26-.4.63-.94,1.11-1.62.48-.68.85-1.22,1.11-1.62,1.8-2.77,4.12-6.18,6.95-10.23,2.83-4.05,4.99-7.19,6.47-9.42,1.48-2.23,3.04-4.69,4.68-7.4,1.64-2.7,2.81-4.98,3.52-6.84.71-1.86,1.06-3.53,1.06-5.01,0-2.36-.63-4.26-1.88-5.67-1.26-1.42-2.91-2.13-4.97-2.13-2.38,0-4.28.78-5.7,2.33-1.42,1.55-2.12,3.92-2.12,7.09,0,1.42-.37,3.11-1.11,5.07-.74,1.96-1.9,4.29-3.48,6.99-1.58,2.7-3.07,5.18-4.49,7.45-1.41,2.27-3.35,5.25-5.79,8.97-2.45,3.72-4.38,6.72-5.79,9.02-.19.34-.64,1.05-1.35,2.13-.71,1.08-1.25,1.96-1.64,2.63-.71,1.15-.57,2.45.43,3.9,1,1.45,2.14,2.18,3.43,2.18h26.27Z"/>
  </g>
  <path class="cls-1" d="M709.78,75.18c15.68,14.14,23.64,32.69,23.64,55.89s-7.95,42.42-23.86,56.56c-2.08,1.85-4.25,3.59-6.52,5.2l.12-.97c.78-5.74,1.56-11.48,2.33-17.22.7-5.17,1.42-10.34,2.11-15.51.73-5.53,1.46-11.08,2.14-16.62.65-5.35,1.25-10.7,1.84-16.04.56-5.06,1.1-10.13,1.62-15.19.57-4.73.88-9.48.91-14.24.02-2.52-.52-5.01-1.59-7.29-1.01-2.41-3.35-4.01-5.97-4.07-2.35-.11-4.7.29-6.88,1.18-2.49,1.04-4.84,2.41-6.98,4.07-14.99,11.2-29.98,22.39-44.97,33.56l-2.92,2.18c-.05-.36-.07-.72-.08-1.08.19-5.38.41-10.76.6-16.14.1-3,.21-6,.26-9,.14-8.95.28-17.91.37-26.87.14-2.84-.23-5.69-1.08-8.4-.33-.96-.8-1.87-1.39-2.71-1.13-1.46-2.94-2.23-4.77-2.03-2.09.07-4.04,1.02-5.39,2.61-1.51,1.62-2.78,3.45-3.75,5.44-9.26,19.53-18.52,39.04-27.76,58.54-.28.54-.73,1.46-1.02,2.03l-.38-.14V54.25h46.83c25.84,0,46.61,7.12,62.52,20.99M762.95,202.7h78.21l-3.05,6.18h-81.74V54.25h81.12l3.05,6.18h-77.55v66.72h66.97v6.12h-66.94l-.07,69.43ZM1047.44,148.47c5.62,6.11,8.67,14.14,8.54,22.44,0,10.86-4.3,19.87-12.81,27.13-8.51,7.26-18.76,10.89-30.51,10.89-17.02-.07-33.4-6.48-45.95-17.98l-2.35-10.05.43-.21c13.67,14.53,30.34,22.22,48.07,22.22,9.44.17,18.62-3.08,25.84-9.15,7.27-6.2,10.9-13.68,10.9-22.44,0-7.26-2.85-13.66-8.14-19.23-5.29-5.57-15.55-11.75-30.51-18.79-16.41-7.7-27.34-14.53-32.69-20.73-5.47-5.75-8.47-13.42-8.33-21.36-.16-10.18,4.24-19.9,12-26.49,7.91-7.05,17.95-10.47,29.7-10.47,14.24,0,25.43,3.2,38.85,12.39v7.49h-.43c-12.18-9.62-24.36-13.89-38.88-13.89-9.62,0-17.95,2.99-24.57,8.77-6.61,5.28-10.4,13.33-10.26,21.78.04,6.67,2.74,13.05,7.49,17.74,4.91,5.34,15.16,11.53,30.76,19.01,16.23,7.72,27.13,14.75,32.9,20.94M891.62,134.65c11.74,0,21.65-3.54,30.04-10.83,8.18-7.28,12.38-16.12,12.38-26.95,0-22.09-16.58-36.45-41.54-36.45h-24.58v74.24h23.7ZM928.73,125.83c-8.12,8.19-18.8,13.34-30.27,14.58l56.61,68.48h-8.84l-55.72-68.04h-22.59v68.04h-6.62V54.25h31.64c28.5,0,47.72,16.34,47.72,42.63,0,11.27-3.98,20.81-11.93,28.94M698.74,105.35c.35.3.66.64.93,1.02.73,1.12.97,2.48.68,3.78-.28,2.95-.66,5.88-1.02,8.82-.02.11-4.57,35.79-10.46,81.93-1.65.73-3.36,1.4-5.09,2.03,5.24-34.96,9.08-60.63,9.08-60.63,1.03-12.64-4.75-16.55-4.75-16.55-.17-.16-.34-.36-.52-.52-1.14-1.03-2.62-1.6-4.16-1.59-3.09.09-6.1,1.02-8.72,2.67-3.39,2.1-6.78,4.2-10.31,6.05-6.71,3.51-13.41,7.01-20.11,10.49v-1.02l1.02-.73c13-9.39,26.05-18.77,39.12-28.15,3.61-2.59,7.22-5.16,10.84-7.71,1.02-.88,2.55-.81,3.49.15M673.72,141.02c2.31-1.39,3.89-.16,5.09,1.72.24.52.32,1.1.21,1.66-.6,4.44-1.24,8.84-1.87,13.22-.77,5.37-1.54,10.74-2.31,16.1l-2.62,18.17-2.14,14.91c-7.55,1.41-15.21,2.07-22.88,1.99h-6.04c.25-4.96.5-9.94.76-14.91.39-7.4.77-14.83,1.16-22.28.22-4.26.49-8.53.59-12.8l.09-2.76c8.37-4.07,17.2-8.29,24.51-12.12,1.81-.94,3.64-1.95,5.39-2.97M489.72,135.55c25.62,0,42.91-14.58,42.81-37.56,0-22.75-16.95-37.56-41.7-37.56h-31.16v75.1h30.07M525.97,66.11c8.81,7.97,13.22,18.34,13.22,31.36s-4.64,24.08-13.69,32.04c-9.29,8.23-21.43,12.2-36.45,12.2h-29.39v67.17h-6.62V54.25h38.43c14.14,0,25.63,3.98,34.47,11.93M385.02,127.53c16.22,7.7,27.11,14.73,32.88,20.92,5.6,6.1,8.65,14.1,8.53,22.37,0,10.84-4.28,19.85-12.8,27.11-8.52,7.26-18.76,10.89-30.51,10.89-17.01-.09-33.39-6.51-45.92-18.02l-1.92-10.24c13.67,14.51,30.32,22.2,48.03,22.2,9.43.17,18.61-3.08,25.83-9.15,7.26-6.16,10.89-13.62,10.89-22.37,0-7.25-2.82-13.65-8.14-19.21-5.32-5.56-15.56-11.75-30.51-18.78-16.39-7.69-27.33-14.52-32.67-20.72-5.47-5.75-8.46-13.42-8.32-21.36-.17-10.17,4.24-19.88,12-26.46,7.89-7.05,17.93-10.47,29.7-10.47,14.24,0,25.43,3.2,38.83,12.39v7.46h-.43c-12.17-9.61-24.34-13.87-38.86-13.87-9.6,0-17.93,2.99-24.55,8.75-6.6,5.28-10.38,13.32-10.25,21.77.04,6.67,2.73,13.04,7.48,17.73,4.91,5.34,15.16,11.52,30.74,19M612.97,133.34c6.26-12.99,12.6-26.13,18.89-39.1l.26.1v1.35c-.26,8.29-.52,16.58-.77,24.87-.17,5.22-.35,10.42-.49,15.64l-.05,1.02-.79.59-6.02,4.07-2.54,1.71c-2.71-3.24-5.83-6.12-9.29-8.56l.8-1.68M614.69,208.89c2.76-2.22,5.27-4.74,7.48-7.52,2.42-3.06,4.45-6.42,6.04-9.99l-.83,17.5h-12.68M559.07,54.25h6.67v154.64h-6.62l-.05-154.64ZM1106.75,208.89c.56,0,1.02-.45,1.02-1.02V54.92c0-.56-.45-1.02-1.02-1.02s-1.02.46-1.02,1.02v152.96c0,.56.45,1.02,1.02,1.02M1162.01,54.48h-1.56l-2.82,11.35h1.56l2.82-11.35ZM1181.15,54.48l-2.08,8.32-4.99-8.32h-1.44l-2.82,11.35h1.48l2.32-9.31,5.64,9.39h.53l2.84-11.43h-1.48ZM1209.49,54.41h-1.51l-7.93,11.41h1.75l2-2.92h5.84l.53,2.92h1.57l-2.25-11.41ZM1208.41,56.16l.99,5.37h-4.65l3.66-5.37ZM1223.18,59.16c.34.47.96.99,1.85,1.56.7.45,1.17.83,1.41,1.12.23.29.34.63.34,1.02,0,1.02-.92,1.7-2.24,1.7-1.22,0-2.5-.7-3.73-2.01l-.03.02.41,2.17c.84.78,2.11,1.28,3.34,1.28,1.12,0,2.04-.31,2.74-.92.7-.62,1.05-1.43,1.05-2.42,0-.65-.18-1.22-.52-1.69-.34-.47-.96-.99-1.85-1.56-1.38-.86-1.77-1.36-1.77-2.09,0-.92.89-1.61,2.17-1.61,1.04,0,2.04.41,2.95,1.14l.03-.02v-1.75c-.86-.54-1.9-.83-2.93-.83-1.1,0-1.99.31-2.69.91-.7.62-1.05,1.39-1.05,2.33,0,.63.18,1.17.52,1.64M1239.47,59.16c.34.47.96.99,1.85,1.56.7.45,1.17.83,1.41,1.12.23.29.34.63.34,1.02,0,1.02-.92,1.7-2.24,1.7-1.22,0-2.5-.7-3.73-2.01l-.03.02.4,2.17c.84.78,2.11,1.28,3.34,1.28,1.12,0,2.04-.31,2.74-.92.7-.62,1.05-1.43,1.05-2.42,0-.65-.18-1.22-.52-1.69-.34-.47-.96-.99-1.85-1.56-1.38-.86-1.77-1.36-1.77-2.09,0-.92.89-1.61,2.17-1.61,1.04,0,2.04.41,2.95,1.14l.03-.02v-1.75c-.86-.54-1.9-.83-2.93-.83-1.1,0-1.99.31-2.69.91-.7.62-1.05,1.39-1.05,2.33,0,.63.18,1.17.52,1.64M1259.31,66.05c1.77,0,3.49-.71,4.73-1.99,1.23-1.25,1.91-2.95,1.91-4.77,0-1.49-.47-2.71-1.41-3.65-.96-.92-2.17-1.39-3.66-1.39-1.77,0-3.49.71-4.72,2-1.25,1.25-1.93,2.95-1.93,4.77,0,1.49.47,2.71,1.43,3.63.94.94,2.16,1.41,3.65,1.41M1256.84,63.59c-.68-.66-1.02-1.56-1.02-2.66,0-1.44.49-2.68,1.46-3.7.97-1.02,2.12-1.52,3.45-1.52,1.07,0,1.95.34,2.63,1.01.66.66,1,1.56,1,2.66,0,1.36-.5,2.64-1.39,3.62-.92,1.02-2.21,1.61-3.5,1.61-1.09,0-1.96-.34-2.63-1.01M1276.42,64.64c.92.92,2.11,1.38,3.55,1.38s2.61-.37,3.57-1.09l.91-2.24-.05-.03c-1.44,1.3-2.8,1.9-4.22,1.9-1.04,0-1.88-.34-2.55-1.02-.67-.66-1-1.54-1-2.59,0-1.31.52-2.61,1.44-3.6.96-1.02,2.21-1.61,3.49-1.61,1.41,0,2.66.73,3.7,2.17h.03l.36-1.81c-1.05-1.22-2.4-1.82-4.01-1.82-1.77,0-3.47.73-4.72,2.01-1.22,1.28-1.9,2.97-1.9,4.78,0,1.46.47,2.64,1.39,3.57M1297.74,54.48h-1.56l-2.82,11.35h1.56l2.82-11.35ZM1313.87,54.41h-1.51l-7.93,11.41h1.75l1.99-2.92h5.84l.54,2.92h1.57l-2.25-11.41ZM1312.78,56.16l.99,5.37h-4.65l3.66-5.37ZM1325.66,54.48l-.37,1.41h4.38l-2.46,9.94h1.56l2.46-9.94h4.31l.36-1.41h-10.23ZM1347.01,54.48h-1.56l-2.82,11.35h1.56l2.82-11.35ZM1360.57,66.05c1.77,0,3.49-.71,4.73-1.99,1.23-1.25,1.91-2.95,1.91-4.77,0-1.49-.47-2.71-1.41-3.65-.96-.92-2.17-1.39-3.66-1.39-1.77,0-3.48.71-4.72,2-1.25,1.25-1.93,2.95-1.93,4.77,0,1.49.47,2.71,1.43,3.63.94.94,2.16,1.41,3.65,1.41M1358.11,63.59c-.68-.66-1.02-1.56-1.02-2.66,0-1.44.49-2.68,1.46-3.7.97-1.02,2.12-1.52,3.45-1.52,1.07,0,1.95.34,2.63,1.01.66.66,1,1.56,1,2.66,0,1.36-.5,2.64-1.39,3.62-.92,1.02-2.21,1.61-3.5,1.61-1.09,0-1.96-.34-2.63-1.01M1386.97,54.48l-2.08,8.32-4.99-8.32h-1.44l-2.82,11.35h1.47l2.32-9.31,5.64,9.39h.53l2.84-11.43h-1.48ZM1416.76,57.69l1.51,8.2h1.54l6.79-11.42h-1.8l-5.43,9.4-1.77-9.53h-.29l-6.15,9.55-.74-9.42h-1.62l1.09,11.42h1.6l5.27-8.2ZM1437.71,54.48h-1.56l-2.82,11.35h1.56l2.82-11.35ZM1447.28,54.48l-.37,1.41h4.38l-2.46,9.94h1.56l2.46-9.94h4.31l.36-1.41h-10.23ZM1476.78,54.48h-1.56l-1.2,4.83h-6.68l1.2-4.83h-1.56l-2.82,11.35h1.56l1.27-5.08h6.68l-1.26,5.08h1.56l2.82-11.35ZM283.95,208.96c-.56,0-1.02-.46-1.02-1.02V54.85c0-.56.45-1.02,1.02-1.02s1.02.46,1.02,1.02v153.09c0,.56-.46,1.02-1.02,1.02M232.62,190.6l-2.9,5.47-8.56-4.55,2.88-5.43,1.85.55-2.02,3.81,1.81.96,1.68-3.17,1.5.8-1.68,3.16,1.9,1.01,2.04-3.85,1.49,1.23ZM223.87,205.73c-.8,1.16-1.84,1.85-3.15,2.09-1.29.24-2.55-.05-3.76-.89-1.17-.81-1.88-1.88-2.12-3.22-.24-1.34.04-2.61.86-3.79.69-1,1.62-1.67,2.72-2.01l1.96,1.35-.02.03c-1.3.25-2.3.83-2.87,1.67-.47.68-.64,1.41-.49,2.18.15.79.56,1.41,1.25,1.88.72.49,1.47.67,2.24.53.78-.13,1.4-.55,1.87-1.23.64-.92.87-2.07.68-3.43h.04s1.79,1.57,1.79,1.57c0,1.26-.31,2.28-.99,3.27M216.21,215.8l-.95,1.06-8.47-.07,4.73,4.19-1.46,1.64-7.23-6.45,1.44-1.61,7.34.06-4.13-3.67,1.46-1.64,7.26,6.48ZM204.24,228.28l-4.65,4.08-6.39-7.28,4.62-4.05,1.54,1.17-3.24,2.85,1.35,1.54,2.69-2.37,1.12,1.28-2.69,2.37,1.41,1.61,3.28-2.88.96,1.68ZM193.73,236.99l-5.01,3.54-5.6-7.91,1.83-1.3,4.44,6.27,3.17-2.25,1.16,1.64ZM182.43,244.55l-5.34,3-4.75-8.45,1.96-1.1,3.77,6.69,3.39-1.9.98,1.75ZM169.84,251.15l-5.69,2.43-3.81-8.9,5.65-2.42,1.1,1.59-3.97,1.7.8,1.88,3.3-1.41.67,1.57-3.3,1.41.84,1.97,4.01-1.71.39,1.9ZM153.57,257.43c-1.35.4-2.6.28-3.76-.36-1.15-.63-1.95-1.65-2.36-3.06-.4-1.37-.28-2.65.38-3.84.66-1.19,1.68-2,3.06-2.41,1.17-.35,2.32-.28,3.38.16l.68,2.28h-.04c-1.16-.61-2.31-.79-3.28-.5-.8.24-1.38.7-1.76,1.39-.38.71-.45,1.45-.21,2.24.25.84.72,1.45,1.41,1.82.69.39,1.43.46,2.23.22,1.08-.32,1.98-1.06,2.69-2.24l.04.02.39,2.36c-.79.99-1.67,1.58-2.83,1.92M142.71,260.13l-2.61.44-2.95-2.85-1.79,3.66-2.55.43,2.78-5.43-4.33-4.14,2.61-.44,2.81,2.71,1.72-3.48,2.55-.43-2.71,5.26,4.47,4.27ZM125.57,262.51l-6.18.32-.5-9.68,6.14-.32.49,1.88-4.32.22.11,2.05,3.58-.19.09,1.7-3.58.18.11,2.14,4.36-.22-.29,1.92ZM103.37,262.33l-6.09-.73,1.15-9.63,2.23.26-.91,7.63,3.87.46-.24,1.99ZM84.16,255.15l2.96.72-.6-3.92-2.37,3.2ZM90.02,260.45l-2.33-.56-.31-2.13-4.31-1.04-1.28,1.74-2.25-.54,6.41-8.45,2.3.55,1.76,10.43ZM77.79,247.21l-.7,1.88-3.25-1.2-2.67,7.21-2.09-.77,2.67-7.21-3.25-1.2.7-1.88,8.59,3.18ZM59.01,250l-2-.98,4.27-8.7,2,.98-4.27,8.7ZM52.7,240.76l-2.32,3.69c-1.53-.09-2.82-.5-4.01-1.24-1.28-.8-2.08-1.83-2.39-3.09-.31-1.25-.08-2.5.71-3.76.8-1.28,1.89-2.04,3.25-2.29,1.35-.25,2.72.06,4.1.92,1.07.67,1.83,1.43,2.46,2.43l-1.18,1.88c-.69-1.22-1.4-1.99-2.29-2.55-.81-.51-1.61-.69-2.44-.54-.83.15-1.47.59-1.93,1.33-.97,1.55-.57,3.19,1.03,4.19.52.32,1,.51,1.55.65l.86-1.37-1.84-1.16.85-1.36,3.59,2.26ZM35.97,235.82l-1.76-1.37,5.97-7.63,1.76,1.37-5.97,7.63ZM30.05,224.5c1.26-1.31,1.12-2.94-.39-4.39l-.89-.85-4.02,4.17.91.87c1.45,1.39,3.15,1.48,4.38.2M21.79,223.28l6.73-6.98,2.53,2.43c1.26,1.21,1.95,2.47,2.07,3.76.11,1.3-.34,2.49-1.39,3.58-1.03,1.07-2.21,1.57-3.55,1.51-1.34-.06-2.63-.69-3.85-1.87l-2.53-2.43ZM15.23,207.18l-1.49,1.06-1.92-2.69-2.95,2.11-1.3-1.82,7.87-5.64,3.72,5.19-1.81.8-2.18-3.05-1.87,1.34,1.92,2.69ZM7.75,191.08c-.39-.7-.97-1.16-1.72-1.36-.77-.19-1.53-.09-2.28.31-.75.41-1.25,1-1.49,1.77-.25.75-.18,1.49.21,2.2.38.7.97,1.16,1.75,1.38.78.21,1.53.11,2.27-.3.74-.4,1.24-.99,1.49-1.78.24-.78.16-1.51-.23-2.23M.69,194.96c-.71-1.3-.87-2.6-.5-3.91.36-1.32,1.19-2.33,2.44-3.01,1.25-.69,2.53-.82,3.87-.43,1.32.4,2.34,1.24,3.04,2.53.71,1.29.87,2.6.51,3.92-.38,1.33-1.19,2.32-2.44,3.01-1.25.69-2.55.83-3.87.43-1.32-.4-2.34-1.24-3.05-2.54M224.7,69.39c-.42-2.2-.02-3.3,1.24-4.01.8-.45,1.6-.52,2.41-.21.8.29,1.48.93,2.03,1.9.54.96.83,1.96.85,2.91l-2.17,1.22v-.02c.01-1.05-.23-2.3-.64-3.02-.28-.5-.63-.66-.95-.48-.34.19-.37.54-.17,1.76.21,1.14.22,2,.04,2.6-.2.61-.63,1.09-1.29,1.46-.83.47-1.65.55-2.46.23-.82-.32-1.5-.96-2.07-1.97-.58-1.03-.85-2.18-.78-3.22l2.21-1.63.04.02c-.1.67-.09,1.36,0,2.05.09.69.24,1.24.47,1.66.32.58.69.77,1.07.56.35-.2.39-.55.17-1.81M219.58,54.71l-1.89,1.37.45.63c.51.71,1.21.87,1.8.43.57-.41.62-1.08.11-1.78l-.47-.65ZM217.12,64.1l-1.93-2.66,1.18-3.97-.18-.25-2.66,1.94-1.64-2.26,7.83-5.69,2.2,3.03c1.5,2.07,1.43,3.83-.19,5.01-.99.72-2.19.8-3.32.21l-1.29,4.65ZM206.23,44.58l1.7,1.82,1.44-3.06-3.14,1.24ZM208.15,52.22l-2.04-2.17.77-1.61-2.76-2.93-1.66.66-1.98-2.11,9.86-3.67,2.12,2.26-4.32,9.57ZM196.06,40.09l-5.11-4.26,6.21-7.45,5.07,4.23-1.21,2.04-3.25-2.71-.95,1.14,2.67,2.23-1.29,1.54-2.67-2.23-.98,1.17,3.28,2.73-1.78,1.56ZM185.3,27.12l-2.06,3.15-2.34-1.53,2.06-3.15.18-6.96,2.7,1.77-.27,3.88,3.44-1.8,2.57,1.68-6.29,2.97ZM164.54,11.85c-.96-.4-1.94.32-2.56,1.82-.63,1.54-.42,2.73.56,3.13.93.38,1.93-.33,2.54-1.83.62-1.52.42-2.73-.54-3.12M167.55,15.95c-.56,1.37-1.4,2.35-2.51,2.91-1.11.56-2.26.6-3.43.12-1.19-.49-1.99-1.31-2.37-2.47-.38-1.16-.29-2.42.28-3.82.56-1.37,1.4-2.33,2.52-2.9,1.11-.56,2.25-.6,3.42-.12,1.18.48,1.96,1.3,2.36,2.46.39,1.16.3,2.44-.27,3.82M152.67,12.7c-.22.79-.73,1.35-1.5,1.66-.79.31-1.68.33-2.66.06-1.13-.32-1.95-.79-2.74-1.61l.41-2.47h.03c.81.96,1.75,1.65,2.56,1.88.71.2,1.28.02,1.41-.47.09-.31-.03-.61-.34-.93-.32-.3-.96-.77-1.95-1.41l.2-.7c.71-.09,1.22-.17,1.63-.24.96-.18,1.3-.31,1.4-.68.12-.43-.2-.79-.84-.97-.76-.21-1.75-.1-2.95.31h-.03s.63-2.25.63-2.25c1.07-.34,2.27-.35,3.4-.04,1.92.54,2.88,1.83,2.47,3.28-.27.96-1.07,1.54-2.37,1.74,1.12.77,1.54,1.73,1.23,2.83M131.59,5.22l-.41,4.6c-1.42.53-2.8.73-4.13.61-1.53-.14-2.73-.69-3.59-1.66-.87-.97-1.23-2.18-1.1-3.66.14-1.53.76-2.72,1.87-3.55,1.1-.83,2.49-1.18,4.18-1.03,1.2.11,2.21.41,3.27,1l-.24,2.62c-1.17-.7-2.12-1.03-3.09-1.11-.85-.08-1.56.1-2.14.52-.58.42-.91,1.01-.98,1.77-.14,1.58.82,2.63,2.53,2.78.4.04.73.02,1.06-.02l.12-1.32-1.81-.16.16-1.79,4.3.39ZM115.59,9.71l-2.08.08-4.97-5.25.25,5.41-2.78.1-.37-9.68,2.74-.1,4.26,4.52-.21-4.68,2.78-.11.37,9.71ZM99.2,10.86l-2.77.4-1.4-9.59,2.77-.41,1.4,9.59ZM87.75,2.95l.62,2.43-3.15.8,1.77,6.96-2.71.69-1.77-6.96-3.15.8-.62-2.43,9.01-2.29ZM69.3,14.75l2.32-.89-2.29-2.48-.04,3.38ZM77.09,15.86l-2.78,1.06-1.2-1.31-3.76,1.44v1.78s-2.71,1.04-2.71,1.04l.33-10.51,2.89-1.11,7.22,7.61ZM53.3,18.24l1.11,2.06.68-.37c.77-.41,1.02-1.08.67-1.73-.33-.62-.99-.75-1.76-.34l-.71.38ZM62.28,21.92l-2.89,1.56-3.78-1.7-.27.14,1.56,2.9-2.46,1.33-4.6-8.52,3.3-1.78c2.25-1.22,3.99-.91,4.94.85.58,1.07.51,2.27-.23,3.32l4.43,1.9ZM42.56,29.17l1.11,1.59.92-.64c.64-.45.83-1.03.49-1.51-.37-.53-.91-.56-1.63-.06l-.89.63ZM40.47,26.19l1.07,1.52.79-.56c.6-.42.77-.98.42-1.46-.33-.46-.86-.5-1.44-.08l-.84.59ZM47.43,27.2c.49.7.61,1.45.35,2.23-.25.8-.83,1.51-1.74,2.15l-3.35,2.35-5.56-7.93,3.31-2.32c1.73-1.22,3.32-1.15,4.24.17.48.69.54,1.56.1,2.46,1.15-.27,2.05.03,2.65.88M37.4,38.14l-4.97,4.41-6.43-7.24,4.93-4.38,1.83,1.5-3.16,2.8.98,1.11,2.6-2.31,1.33,1.5-2.6,2.31,1.01,1.14,3.19-2.83,1.27,2ZM27.93,46.98l-4.42,4.85-7.17-6.52,1.88-2.07,5.31,4.84,2.54-2.79,1.85,1.69ZM19.22,57.05l-3.91,5.36-7.82-5.71,3.89-5.33,2.11,1.08-2.49,3.41,1.19.87,2.05-2.8,1.62,1.18-2.04,2.8,1.23.9,2.51-3.44,1.67,1.68ZM10.13,70.97c-.71,1.24-1.7,2.04-2.97,2.39-1.26.35-2.54.16-3.81-.55-1.24-.7-2.05-1.72-2.4-3.03-.36-1.3-.17-2.59.55-3.86.61-1.07,1.47-1.87,2.48-2.27l2.48,1.41-.02.04c-1.17.35-2.09.99-2.56,1.82-.36.64-.46,1.26-.3,1.9.17.63.55,1.13,1.17,1.48,1.29.73,2.65.31,3.39-.99.51-.9.66-2,.41-3.22l.04-.02,2.3,1.7c.07,1.14-.17,2.15-.77,3.21M172.2,101.85l10.74,22.27c-1.9,1.33-3.61,2.91-5.09,4.68l-4.67-3.15-.43-.32-.02-.54c-.08-2.85-.17-5.7-.26-8.55-.14-4.53-.28-9.07-.41-13.6h0c-.01-.24,0-.49,0-.74l.15-.05ZM174.12,154.85c4.07,9.13,13.5,15.53,24.51,15.54.02,0,.05,0,.08,0-.82,1.1-1.68,2.18-2.59,3.22-5.82,6.71-12.67,11.36-20.46,13.95l-1.53-32.71M141.4,119.04s-3.16,2.13-2.6,9.04c0,0,4.34,29.17,9.04,60.71-1.14-.25-2.26-.55-3.37-.88-4.71-37.13-9.19-72.5-9.2-72.59-.19-1.61-.4-3.21-.56-4.81-.07-.71-.1-1.45.38-2.07.15-.2.32-.38.51-.53.66-.53,1.23-.56,1.9-.08,1.98,1.4,3.96,2.8,5.93,4.21,7.13,5.14,14.25,10.28,21.38,15.43l.58.4v.55c-3.68-1.9-7.36-3.82-11.03-5.75-1.93-1.01-3.79-2.16-5.63-3.31-1.43-.9-3.07-1.41-4.76-1.47-.84,0-1.65.31-2.27.87-.1.09-.19.19-.29.28M167.67,177.3c.14,2.85.29,5.7.43,8.55l.18,3.51c-2.75.45-5.61.67-8.56.67-1.6,0-3.17-.07-4.7-.19-.29-2.03-.58-4.07-.87-6.11-.42-2.98-.85-5.96-1.28-8.94-.48-3.27-.96-6.54-1.42-9.81-.47-3.27-.93-6.54-1.4-9.8-.47-3.32-.95-6.64-1.42-9.95-.41-2.93-.83-5.87-1.26-8.8-.34-2.39-.7-4.8-1.01-7.21-.06-.31-.02-.62.12-.91.65-1.03,1.5-1.7,2.79-.93.96.58,1.96,1.1,2.95,1.63,4,2.1,8.82,4.41,13.39,6.64l.05,1.5c.05,2.34.2,4.67.32,7.01.21,4.07.42,8.13.63,12.2.15,2.87.29,5.73.43,8.62.21,4.11.42,8.21.63,12.32M135.31,171.9c.33,2.6.66,5.18.99,7.77.22,1.74.45,3.49.67,5.23-5.11-2.63-9.67-6.28-13.65-10.96-9.18-10.79-13.85-24.8-13.85-42.36s4.83-31.25,14.33-42.36c9.5-10.95,21.58-16.43,36.24-16.43s26.9,5.31,36.24,16.11c6.96,8.04,11.33,17.96,13.1,29.7-.19.4-.38.81-.58,1.21-.14.28-.38.78-.53,1.1-6.16-2.26-12.92-2.27-19.08-.02-.16-.32-.4-.82-.53-1.1-5.07-10.67-10.13-21.35-15.18-32.03-.53-1.09-1.22-2.1-2.05-2.98-.73-.87-1.8-1.39-2.94-1.43-1.03-.03-1.97.25-2.61,1.13-.32.46-.58.95-.76,1.48-.52,1.48-.6,3.04-.6,4.59.04,4.9.12,9.8.19,14.7.03,1.64.08,3.28.14,4.92.1,2.94.21,5.89.31,8.83,0,.2-.02.39-.05.59l-1.6-1.19c-8.2-6.11-16.4-12.23-24.58-18.35-1.17-.92-2.45-1.68-3.82-2.25-1.19-.49-2.46-.72-3.74-.67-1.58.06-2.62.92-3.26,2.24-.58,1.25-.88,2.61-.87,3.98.02,2.61.18,5.21.49,7.8.28,2.77.57,5.54.87,8.3.32,2.92.65,5.85,1,8.77.37,3.03.76,6.06,1.16,9.09.37,2.83.77,5.65,1.14,8.48.44,3.14.86,6.28,1.28,9.42.34,2.54.66,5.08.98,7.62.39,3.03.78,6.06,1.17,9.09M103.45,157.18c0-13.37-7.73-22.71-22.71-27.86,14.01-6.28,21.1-15.3,21.1-26.89,0-17.55-14.82-28.99-38.01-28.99-13.69,0-27.06,3.87-38.01,11.11v27.05h.32c12.08-8.37,22.87-12.72,32.05-12.72,7.73,0,12.4,3.06,12.4,8.22,0,4.51-3.38,7.08-13.53,12.08-4.35,2.09-9.82,4.67-17.55,7.89v8.37c13.05,4.03,21.74,7.25,26.25,9.66,4.51,2.58,6.76,5.64,6.76,9.34,0,5.8-5.8,9.66-14.33,9.66-9.82,0-22.55-4.83-34.63-13.04l-.32.16,3.22,28.99c11.44,6.6,22.06,9.34,35.75,9.34,11.92,0,21.74-3.06,29.63-9.02,7.73-5.96,11.59-13.85,11.59-23.35"/>
</svg>