<?xml version="1.0" encoding="UTF-8"?>
<svg xmlns="http://www.w3.org/2000/svg" viewBox="0 0 1512 204">
<path d="M0 0 C1.1 -0 2.3 -0 3.5 -0 C11.2 -0.1 17.4 0.6 24.6 3.7 C27.5 4.9 29.7 5.6 32.8 6.1 C36.8 6.9 38.9 8.5 42.1 11.2 C43.3 11.5 44.4 11.8 45.6 12.1 C49 13.1 50.8 14.2 53.3 16.6 C54.7 17.8 56.2 19 57.7 20.2 C65.4 26.2 71.4 32.6 76.1 41.2 C76.4 41.6 76.4 41.6 77.6 43.5 C79.2 46.3 80.3 49.1 81.3 52.1 C82.1 54.2 82.1 54.2 83.7 56.5 C85.4 59.6 85.8 62.1 86.2 65.6 C86.6 68.9 87 71.9 88.1 75 C89.4 79.1 89.7 82.9 89.9 87.1 C90 88 90 88.8 90.1 89.6 C90.4 97.7 89.8 106.8 86.1 114.2 C86 115.7 85.9 117.2 85.9 118.8 C85.4 123.7 83.9 126.9 81.4 131.1 C80.1 133.2 80.1 133.2 78.6 136.7 C75.7 143.5 72.7 149.2 67.1 154.2 C66.3 155 65.5 155.9 64.6 156.8 C58 163.2 58 163.2 55.1 163.2 C54.9 163.8 54.7 164.4 54.5 165 C52.6 168 50.4 168.8 47.1 170.2 C46.5 170.2 45.8 170.2 45.1 170.2 C45.1 170.8 45.1 171.5 45.1 172.2 C44.5 172.4 43.9 172.7 43.3 173 C42.5 173.3 41.8 173.6 40.9 174 C40.2 174.3 39.4 174.7 38.6 175 C36.1 176.2 36.1 176.2 33.9 177.7 C29.9 179.8 26 180.3 21.6 180.9 C20.7 181 19.8 181.1 18.9 181.3 C7.6 182.7 -4.7 183.6 -15.9 181.2 C-18.2 181.1 -20.5 181 -22.8 180.9 C-29.3 180.5 -32 179.3 -36.9 175.2 C-39.2 174.5 -41.5 173.8 -43.9 173.2 C-45.2 171.9 -46.6 170.6 -47.9 169.2 C-49.5 168.5 -51.2 167.8 -52.9 167.2 C-54.6 165.9 -56.2 164.5 -57.9 163.2 C-58.8 162.7 -59.7 162.2 -60.7 161.6 C-64.8 159 -67.2 154.8 -70 150.9 C-71.5 148.8 -72.9 146.9 -74.6 145 C-76.9 142.1 -78.4 139.3 -80 136 C-80.9 134.2 -80.9 134.2 -82.9 131.2 C-83.2 129.7 -83.5 128.2 -83.8 126.8 C-84.5 123.2 -85.4 121 -87.9 118.2 C-88.8 115.4 -89 113.6 -89 110.7 C-89 109.8 -89.1 108.9 -89.1 108 C-89.1 107 -89.1 106.1 -89.1 105.1 C-89.1 104.1 -89.1 103.1 -89.1 102 C-89.1 99.9 -89.1 97.8 -89.1 95.7 C-89.1 92.5 -89.2 89.2 -89.2 86 C-89.2 83.9 -89.2 81.9 -89.2 79.8 C-89.2 78.9 -89.2 77.9 -89.2 76.9 C-89.2 69.7 -87.9 65.2 -83.9 59.2 C-83.5 57.7 -83.2 56.2 -83 54.8 C-82.2 50.6 -81 49.1 -77.9 46.2 C-77.2 44.2 -76.5 42.3 -75.8 40.3 C-73.3 34.4 -68.5 29.6 -63.9 25.2 C-63.3 24.6 -62.8 24 -62.2 23.4 C-59 20.1 -56 17.4 -51.9 15.2 C-51.1 14.7 -50.3 14.2 -49.5 13.7 C-46.4 11.9 -43.2 10.6 -39.9 9.2 C-39.1 8.7 -38.3 8.2 -37.5 7.6 C-34.4 5.9 -31.6 5.4 -28.1 4.7 C-26 4.2 -24.2 3.5 -22.2 2.6 C-15.1 -0.5 -7.6 0 0 0 Z M-20.8 16.4 C-21.5 16.5 -22.2 16.6 -22.9 16.7 C-27.6 17.5 -30.6 19.1 -34.3 22 C-35.9 23.2 -35.9 23.2 -38.4 24.1 C-42.3 25.8 -45.1 28.8 -48.2 31.8 C-48.9 32.4 -49.6 33 -50.3 33.6 C-54.5 37.7 -58.3 41.8 -61.7 46.5 C-62.9 48.2 -62.9 48.2 -64.9 50.2 C-65.6 52.1 -65.6 52.1 -66.3 54.4 C-67.1 57.2 -68 59.4 -69.4 61.9 C-71.2 66 -71.7 69.7 -72.1 74.1 C-72.1 75 -72.2 75.8 -72.3 76.7 C-73.2 87.4 -73.1 98 -72.1 108.7 C-72 109.4 -71.9 110.2 -71.9 110.9 C-71.3 115.8 -70 119.7 -67.9 124.2 C-66.9 126.7 -66 129.2 -65 131.8 C-63.7 134.6 -61.9 136.8 -59.9 139.2 C-59.2 140 -58.6 140.9 -57.9 141.8 C-57.6 142.2 -57.6 142.2 -55.9 144.4 C-55.6 144.8 -55.6 144.8 -54 147 C-51.7 149.4 -49.9 150.1 -46.9 151.2 C-46.7 151.5 -46.7 151.5 -45.9 153.1 C-44.3 156.2 -42 156.9 -38.9 158.2 C-38.2 158.2 -37.6 158.2 -36.9 158.2 C-36.5 159.2 -36.2 160.2 -35.9 161.2 C-33 162.2 -33 162.2 -29.4 163.2 C-28.2 163.5 -27 163.8 -25.8 164.1 C-25.1 164.3 -24.5 164.4 -23.9 164.6 C-21.9 165.2 -21.9 165.2 -19.8 166 C-13.3 168.4 -7.3 168.6 -0.4 168.6 C0.1 168.6 0.1 168.6 2.8 168.6 C9.8 168.6 15.6 167.5 22.1 165.2 C23.3 164.8 24.5 164.5 25.8 164.2 C26.8 163.9 27.9 163.6 28.9 163.2 C30 163 31.1 162.7 32.1 162.3 C35.4 161.1 37.5 159.5 40.1 157.2 C40.6 156.9 40.6 156.9 43 155.3 C50.8 150 55.8 144 61.1 136.2 C61.5 135.7 61.5 135.7 63.4 133.1 C65.3 129.9 66.3 126.9 67.3 123.4 C68.1 121.2 69.1 119.4 70.2 117.4 C73.3 112.2 73.3 107.8 73.3 101.9 C73.3 101.1 73.3 100.3 73.3 99.4 C73.3 97.7 73.3 96 73.3 94.4 C73.3 91.8 73.3 89.2 73.3 86.6 C73.4 84.9 73.4 83.3 73.4 81.6 C73.4 81.2 73.4 81.2 73.4 79.3 C73.4 73.7 72.2 70.2 69.6 65.3 C68.1 62.2 68.1 62.2 67.2 58.6 C66 54.9 64.6 53.1 62.1 50.2 C61.7 49.3 61.2 48.3 60.8 47.4 C57.5 40.9 52.3 32.8 45.4 30.1 C43.1 29.2 43.1 29.2 42.3 27.3 C40.7 24.5 39.1 23.9 36.2 22.6 C33.3 21.2 30.8 20 28.1 18.2 C12.1 14.3 -4.5 13.9 -20.8 16.4 Z " fill="#000000" transform="translate(106.875,5.8125)"/>
<path d="M0 0 C1.5 0.4 3 0.8 4.6 1.1 C8.3 2.1 10.1 3.5 13 6 C14.7 6.7 16.3 7.3 18 8 C19.8 9.2 19.8 9.2 21 11 C21.4 14.7 21.4 16.4 19.2 19.5 C18.9 19.9 18.9 19.9 16.9 21.9 C16.1 22.8 15.2 23.6 14.4 24.5 C13.6 25.3 12.8 26.2 12 27 C10.9 28.3 9.7 29.6 8.6 30.9 C2.9 37.7 2.9 37.7 -1.9 38.4 C-5.6 38.4 -7.4 37.1 -10.4 35 C-19.3 29.9 -31.1 30.3 -41 32 C-45.5 33.6 -49 36.3 -52 40 C-53.8 45.4 -53.9 51.5 -52 56.9 C-49.1 60 -45.7 61.9 -42 64 C-41 64.7 -40 65.3 -39 66 C-37 66.2 -37 66.2 -34.8 66.3 C-31.2 66.6 -29 67.4 -26 69.5 C-23 71.6 -21.1 72.3 -17.5 72.5 C-13 72.8 -10.5 74.3 -6.9 76.8 C-4.1 78.5 -1.1 79.1 2 80 C4.6 81.9 4.6 81.9 7 84 C7.8 84.5 8.7 84.9 9.5 85.4 C15.7 89.3 18.8 94.6 22 101 C22.2 101.3 22.2 101.3 23 102.7 C25.2 107.8 24.5 113.8 24.6 119.2 C24.6 119.9 24.6 120.6 24.6 121.3 C24.6 133.6 23.3 144.4 14.5 153.7 C13.7 154.4 12.8 155.2 12 156 C11.7 156.3 11.7 156.3 10.1 158 C9.6 158.6 9 159.1 8.4 159.8 C7.9 160.3 7.3 160.9 6.7 161.5 C5 163 5 163 2.9 163.5 C2.3 163.6 1.6 163.8 1 164 C0.8 164.3 0.8 164.3 0.1 165.9 C-1.4 168.8 -3.1 169.3 -5.9 170.6 C-8.8 172 -11.3 173.2 -14 175 C-16.7 175.5 -19.2 175.8 -21.9 176.1 C-22.3 176.2 -22.3 176.2 -24.3 176.4 C-41.5 178 -64.3 180.1 -79 170 C-79.9 169.6 -80.8 169.3 -81.8 168.9 C-84.6 167.7 -86.6 166 -89 164 C-89.9 163.5 -90.7 163.1 -91.6 162.6 C-94.5 160.7 -95.7 159.1 -97 156 C-96.6 152.1 -95.6 150 -92.9 147.2 C-92.2 146.5 -91.6 145.8 -91 145.1 C-90.3 144.4 -89.7 143.7 -89 143 C-87.9 141.6 -86.7 140.3 -85.6 138.9 C-82 134.9 -78.1 131.4 -74 128 C-69.7 130 -66.2 131.6 -62.9 135.1 C-58 139.6 -51.4 140 -45 141 C-43.8 141.2 -42.6 141.4 -41.3 141.7 C-38.1 142 -36.5 141.9 -33.6 140.7 C-30.6 139.6 -28 138.8 -24.9 138.3 C-19.7 137.1 -16.8 133.3 -14 129 C-12.6 125.2 -12.7 123.8 -14.1 120 C-18.8 112.5 -23 109.6 -31 106 C-31.7 105.6 -32.3 105.3 -33 104.9 C-35.1 103.9 -37 103.5 -39.2 103.1 C-43.3 102.3 -46.4 100.9 -50 98.9 C-52.2 97.9 -54.2 97.4 -56.6 97 C-60.8 96.2 -63.5 94.5 -67 92 C-68.1 91.6 -69.2 91.1 -70.3 90.7 C-79.2 87 -87.2 79.5 -91.5 71 C-97.5 56.6 -96.3 42.8 -90.7 28.5 C-89.1 25.2 -87.7 23.4 -85 21 C-84.3 19.9 -83.6 18.8 -82.8 17.7 C-78.4 11.3 -71.9 7.2 -65 4 C-64.4 3.5 -63.8 3 -63.2 2.4 C-60.3 0.6 -57.6 0.2 -54.2 -0.5 C-51.2 -1.2 -48.7 -2.6 -46 -4 C-30.6 -7.1 -14.3 -6.5 0 0 Z " fill="#000000" transform="translate(1476,11)"/>
<path d="M0 0 C2.9 -0.3 5.5 -0.5 8.3 -0.4 C8.7 -0.4 8.7 -0.4 10.6 -0.5 C14.5 -0.5 16.5 -0.3 19.9 1.8 C22.3 4.4 23.5 6.9 25 10 C26.3 11.4 27.6 12.7 29 14 C33.1 19.1 36.8 24.5 40.2 30 C40.7 30.8 41.1 31.5 41.6 32.2 C41.8 32.5 41.8 32.5 42.8 34.2 C44 36 44 36 45.4 37.3 C48.3 40.3 50 44.2 52 47.9 C53.9 51.5 55.7 53.6 59 56 C60.1 57.6 61.1 59.3 62 61 C63.1 62.6 64.2 64.2 65.4 65.8 C67.5 68.8 69.6 71.9 71.5 75 C75.8 82 80.7 88.7 85.7 95.3 C87.3 97.4 88.6 99.7 90 102 C90.7 102.8 91.3 103.6 92 104.4 C94 107 94 107 95.5 110.1 C97 113 97 113 98.9 114.9 C101.1 117.1 102.4 119.1 103.9 121.8 C106.1 125.7 108.5 128.9 111.5 132.2 C113.8 135 115.6 138.1 117.5 141.2 C119.3 143.3 120.3 143.6 123 144 C124.3 141.4 124.1 139.4 124.1 136.5 C124.2 135.3 124.2 134.1 124.2 132.9 C124.2 131.6 124.2 130.3 124.2 129 C124.2 127.6 124.2 126.2 124.2 124.8 C124.2 121.9 124.2 118.9 124.2 115.9 C124.2 111.2 124.3 106.5 124.3 101.9 C124.4 88.5 124.4 75.2 124.5 61.9 C124.5 54.5 124.5 47.1 124.6 39.8 C124.6 35.1 124.6 30.4 124.6 25.8 C124.6 22.9 124.7 20 124.7 17.1 C124.7 15.1 124.7 13.1 124.7 11.1 C124.7 9.9 124.7 8.8 124.7 7.5 C124.7 6.5 124.7 5.5 124.7 4.4 C125 2 125 2 127 0 C129.3 -0.3 129.3 -0.3 131.9 -0.2 C132.8 -0.3 133.7 -0.3 134.6 -0.3 C137 0 137 0 140 2 C140.4 4.8 140.4 4.8 140.4 8.4 C140.4 9.1 140.5 9.8 140.5 10.4 C140.5 12.7 140.5 14.9 140.5 17.2 C140.5 18.8 140.5 20.4 140.6 22 C140.6 26.4 140.6 30.7 140.7 35.1 C140.7 38.8 140.7 42.4 140.8 46.1 C140.8 54.7 140.9 63.3 140.9 71.9 C141 80.8 141.1 89.7 141.1 98.5 C141.2 106.2 141.3 113.8 141.3 121.4 C141.3 125.9 141.4 130.5 141.4 135.1 C141.5 139.3 141.5 143.6 141.5 147.9 C141.5 149.5 141.5 151.1 141.6 152.6 C141.6 154.8 141.6 156.9 141.6 159.1 C141.6 160.3 141.6 161.5 141.6 162.7 C140.8 167.1 139.1 168.8 136 172 C131.7 174.2 126.6 173.8 122 173 C116.6 169.6 113.2 164.2 110 158.8 C109 157 109 157 107.2 154.6 C106 153 106 153 106 151 C105.7 150.9 105.7 150.9 104.2 150.3 C101.5 148.7 100.7 147.2 99.2 144.5 C94.8 136.8 89.6 129.8 84.3 122.8 C82.5 120.3 80.7 117.6 79 115 C78.1 113.7 77.2 112.3 76.3 111 C74.4 108.2 72.6 105.4 70.8 102.5 C70.4 101.9 70 101.3 69.6 100.7 C68.8 99.5 68.1 98.3 67.3 97 C64.8 93.1 62 89.6 59 86 C57.7 84 56.3 82 55 80 C54.1 78.8 53.1 77.5 52.2 76.3 C49.1 72.3 46.4 68 43.7 63.7 C41.7 60.6 39.5 57.6 37.3 54.7 C36 53 36 53 34.4 50.2 C33 48 33 48 31.2 46.3 C28 43 26.2 39.1 24.1 35 C21.9 31.1 20.1 28.9 16 27 C15.3 27 14.7 27 14 27 C13.3 31 12.9 34.7 12.9 38.7 C13 39.8 13 41 13 42.1 C13 43.3 13 44.5 13 45.8 C13.1 47.8 13.1 49.8 13.1 51.7 C13.1 53.8 13.2 56 13.2 58.1 C13.3 62.5 13.3 66.9 13.4 71.3 C13.4 72.9 13.4 74.4 13.4 75.9 C13.4 76.7 13.4 77.4 13.4 78.2 C13.6 88.5 13.7 98.8 13.8 109.1 C13.9 116 14 122.9 14.1 129.9 C14.1 133.6 14.1 137.2 14.2 140.9 C14.3 145 14.3 149.1 14.3 153.2 C14.4 154.4 14.4 155.6 14.4 156.9 C14.4 163.2 14.4 167.3 10 172 C7.5 173.5 7.5 173.5 5 174 C2.1 173.2 1.2 172.2 -0.6 169.8 C-2.3 166.4 -2.4 164 -2.4 160.2 C-2.4 159.5 -2.4 158.8 -2.4 158.2 C-2.4 155.9 -2.4 153.7 -2.4 151.4 C-2.4 149.8 -2.4 148.2 -2.4 146.6 C-2.4 142.2 -2.4 137.8 -2.4 133.5 C-2.4 128.9 -2.4 124.3 -2.4 119.8 C-2.4 112.1 -2.4 104.4 -2.3 96.7 C-2.3 87.8 -2.3 79 -2.3 70.1 C-2.3 61.5 -2.3 53 -2.3 44.4 C-2.3 40.8 -2.3 37.2 -2.3 33.5 C-2.3 29.3 -2.3 25 -2.3 20.7 C-2.3 19.1 -2.3 17.6 -2.3 16 C-2.3 13.8 -2.3 11.7 -2.3 9.6 C-2.3 8.4 -2.3 7.2 -2.3 5.9 C-2 3 -2 3 0 0 Z " fill="#000000" transform="translate(235,12)"/>
<path d="M0 0 C0.9 -0 1.7 -0 2.6 -0 C4.9 0.2 4.9 0.2 6.9 2.2 C7.1 4.9 7.1 4.9 7.2 8.3 C7.2 9.6 7.2 10.9 7.2 12.2 C7.2 13.6 7.2 15.1 7.2 16.5 C7.2 18 7.2 19.5 7.2 21 C7.3 25.1 7.3 29.2 7.3 33.3 C7.3 37.6 7.3 41.9 7.3 46.2 C7.4 54.3 7.4 62.4 7.5 70.5 C7.5 79.8 7.6 89 7.6 98.2 C7.7 117.2 7.8 136.2 7.9 155.2 C10.8 156.7 13.3 156.3 16.5 156.3 C17.2 156.3 17.9 156.3 18.6 156.3 C20.1 156.3 21.6 156.3 23.1 156.3 C25.4 156.2 27.8 156.2 30.2 156.2 C36.9 156.2 43.6 156.1 50.3 156.1 C54.4 156 58.5 156 62.6 156 C64.1 156 65.7 156 67.3 156 C69.4 155.9 71.6 155.9 73.8 155.9 C75.1 155.9 76.3 155.9 77.6 155.9 C82.5 156.4 85 158.2 88.2 161.9 C88.7 162.7 89.3 163.5 89.9 164.2 C87.8 168.3 85.7 170.8 81.9 173.2 C79 173.6 76.4 173.8 73.5 173.8 C72.7 173.8 71.8 173.8 71 173.8 C68.2 173.9 65.5 173.9 62.8 173.9 C60.8 173.9 58.9 173.9 57 173.9 C53 173.9 49 173.9 45 173.9 C39.9 173.9 34.8 173.9 29.7 174 C25.7 174 21.8 174 17.8 174 C16 174 14.1 174 12.2 174 C9.5 174 6.9 174 4.3 174 C3.5 174 2.7 174 1.9 174 C-2.2 174 -3.8 173.5 -6.8 170.6 C-9.5 167.2 -9.7 164.6 -9.7 160.3 C-9.7 159.9 -9.7 159.9 -9.7 158.2 C-9.7 155.9 -9.7 153.7 -9.7 151.4 C-9.7 149.8 -9.7 148.2 -9.7 146.5 C-9.7 142.1 -9.7 137.7 -9.6 133.3 C-9.6 128.7 -9.6 124.1 -9.6 119.5 C-9.6 110.8 -9.5 102.1 -9.5 93.3 C-9.4 83.4 -9.4 73.5 -9.4 63.5 C-9.3 43.1 -9.2 22.7 -9.1 2.2 C-5.9 0.5 -3.7 -0 0 0 Z " fill="#000000" transform="translate(431.125,11.75)"/>
<path d="M0 0 C1.2 -0 2.5 -0.1 3.7 -0.1 C7.1 0.3 7.1 0.3 9.5 2.2 C11.4 4.7 12.7 7.4 14.1 10.3 C16.4 14.1 18.8 17.8 21.2 21.4 C23.1 24.3 23.1 24.3 24.7 27.5 C26.1 30.3 26.1 30.3 27.6 31.8 C29.5 33.7 30.7 36 32 38.4 C34.9 43.5 38.2 48.4 41.6 53.2 C44.4 57.1 46.8 61.1 49 65.3 C50.1 67.3 50.1 67.3 51.7 69.4 C53.3 71.6 54.2 73.8 55.1 76.3 C56.1 77.3 56.1 77.3 59.1 77.5 C62.1 77.3 62.1 77.3 64.1 75.3 C64.5 74.3 64.9 73.3 65.3 72.3 C67.1 68.1 69.7 64.6 72.4 60.9 C74.5 57.8 76.3 54.6 78 51.2 C79.2 49.2 80.5 47.9 82.1 46.3 C85 42.2 87.4 38 89.8 33.6 C91.8 30.1 94 26.7 96.1 23.3 C96.7 22.4 97.3 21.4 97.9 20.5 C98.5 19.5 99.1 18.5 99.8 17.5 C100 17 100 17 101.5 14.7 C102.9 12.6 104.3 11.1 106.1 9.3 C106.4 8.8 106.4 8.8 108.1 6.3 C110 3.5 111.2 2.1 114.1 0.3 C116.9 -0 116.9 -0 119.8 0.1 C120.7 0.1 121.7 0.1 122.7 0.1 C125.1 0.3 125.1 0.3 127.1 1.3 C126.9 6.6 125.1 8.8 121.7 12.5 C119.6 14.9 118.4 17.4 117.1 20.3 C114.1 26.5 109.9 32.1 105.9 37.8 C102.2 43 98.7 48.2 95.7 53.8 C93.9 57.1 91.8 60.2 89.6 63.3 C87.3 66.5 85.5 69.5 84 73.1 C82.4 77.1 80.3 79.4 77.1 82.3 C73.8 86 71.9 89.7 70.1 94.2 C69.1 96.3 69.1 96.3 67.1 99.3 C66.9 102.2 66.9 102.2 66.9 105.8 C66.9 106.1 66.9 106.1 67 107.8 C67 109.2 67 110.6 67 112.1 C67 114.3 67.1 116.6 67.1 118.8 C67.1 125.2 67.2 131.6 67.2 138 C67.3 142 67.3 145.9 67.3 149.8 C67.3 151.3 67.4 152.8 67.4 154.3 C67.4 156.4 67.4 158.5 67.4 160.6 C67.4 161.7 67.5 162.9 67.5 164.1 C67.1 167.7 66.2 169.5 64.1 172.3 C61.3 173.7 59.3 173.6 56.1 173.3 C52.8 171 51.5 168.5 50.5 164.6 C49.7 159.3 50.2 153.9 50.4 148.5 C50.4 147.2 50.5 145.8 50.5 144.5 C50.7 138.8 50.9 133.1 51.1 127.4 C51.3 123.9 51.4 120.4 51.5 116.9 C51.5 115 51.6 113 51.7 111.1 C51.9 101.5 49.3 95.3 44.1 87.3 C43.6 86.5 43 85.6 42.5 84.7 C40.5 81.7 38.4 78.8 36.3 75.8 C33.1 71.3 30.4 67 28 62 C26.8 59.7 25 58.1 23.1 56.3 C22.1 54.3 21.1 52.3 20.1 50.3 C17.7 46 15.2 41.9 12.3 37.9 C11.1 36.3 11.1 36.3 9.6 33.7 C8.1 31.3 8.1 31.3 6.2 29 C4.1 26.3 2.7 23.7 1.3 20.5 C-1.1 15.6 -3.6 11.9 -7.6 8.1 C-9.3 5.8 -9.1 4.2 -8.9 1.3 C-5.9 -0.2 -3.3 0.1 0 0 Z " fill="#000000" transform="translate(504.875,11.6875)"/>
<path d="M0 0 C0.4 -0 0.4 -0 2.4 -0 C5.1 -0 7.7 -0 10.4 -0 C12.2 -0 14.1 -0 15.9 -0.1 C19.8 -0.1 23.7 -0.1 27.6 -0 C32.5 -0 37.4 -0 42.4 -0.1 C46.2 -0.1 50 -0.1 53.9 -0.1 C55.7 -0.1 57.5 -0.1 59.3 -0.1 C70.1 -0.2 78.2 0.6 88 5.5 C90.4 6.3 92.8 7.1 95.2 7.8 C97.3 8.7 98.4 9.8 100 11.5 C100.8 11.9 101.6 12.4 102.3 12.8 C108.3 16.7 111.5 21.9 114.2 28.4 C115 30.5 115 30.5 116.1 32.4 C117.1 34.7 117.3 36.5 117.5 39 C117.5 39.9 117.6 40.8 117.6 41.6 C117.6 42.6 117.7 43.5 117.7 44.4 C117.7 45.4 117.8 46.3 117.8 47.3 C117.9 50 118 52.8 118 55.5 C118.1 56.8 118.1 58.2 118.1 59.5 C117.9 69.6 114.4 79.7 107.5 87.2 C107.1 87.6 107.1 87.6 105 89.5 C104.4 90.2 103.7 90.8 103 91.4 C98.8 95.2 95.3 97.5 90 99.5 C89.7 99.8 89.7 99.8 87.8 101 C76.3 107.3 57.4 104.9 44.6 105.1 C43.8 105.1 43.1 105.1 42.3 105.1 C40.3 105.2 38.3 105.2 36.3 105.2 C33.3 105.5 31.5 105.8 29 107.5 C27.7 110.2 27.9 112.1 27.9 115.1 C27.9 116.3 27.9 117.4 27.9 118.6 C27.9 119.9 27.9 121.2 27.9 122.5 C27.9 124.4 27.9 126.4 27.8 128.4 C27.8 133.3 27.8 138.2 27.8 143.1 C27.8 145.8 27.8 148.5 27.7 151.3 C27.7 153.9 27.7 156.4 27.7 159 C27.6 167.7 27.6 167.7 24.9 171.8 C21.5 173.8 19.5 174.2 15.6 174.2 C14.4 174.2 13.1 174.2 11.9 174.2 C10.6 174.2 9.3 174.2 8 174.2 C6.8 174.2 5.5 174.2 4.2 174.2 C-6.2 174.2 -6.2 174.2 -9.3 171.2 C-12.8 165.7 -13.1 162 -12.5 155.7 C-11.9 148.4 -11.9 141.2 -11.9 133.9 C-11.9 132.5 -11.9 131.1 -11.9 129.7 C-12 126.6 -12 123.6 -12 120.6 C-12 115.8 -12 111.1 -12.1 106.3 C-12.1 104.7 -12.1 103 -12.1 101.4 C-12.1 101 -12.1 101 -12.1 98.9 C-12.1 87.8 -12.2 76.7 -12.2 65.6 C-12.3 58.1 -12.3 50.6 -12.3 43.1 C-12.3 39.2 -12.3 35.2 -12.4 31.2 C-12.4 27.5 -12.4 23.8 -12.4 20.1 C-12.4 18.1 -12.4 16 -12.5 14 C-12.5 12.8 -12.5 11.6 -12.4 10.4 C-12.5 9.4 -12.5 8.3 -12.5 7.2 C-11.2 0.3 -6.1 -0.1 0 0 Z M27 35.5 C26.6 38.4 26.4 40.7 26.5 43.6 C26.5 44.4 26.5 45.1 26.5 45.9 C26.5 47.5 26.5 49.1 26.5 50.8 C26.6 53.2 26.6 55.7 26.6 58.2 C26.6 59.7 26.6 61.3 26.7 62.9 C26.7 63.6 26.7 64.3 26.7 65.1 C26.8 70.3 26.8 70.3 29 72.5 C31.7 72.8 34.2 72.9 36.9 72.9 C37.7 72.9 38.4 72.9 39.3 72.9 C40.9 72.9 42.6 73 44.2 73 C46.8 73 49.3 73 51.8 73.1 C53.4 73.1 55 73.1 56.6 73.1 C57 73.1 57 73.1 58.9 73.2 C64.8 73.1 67 71.5 71 67.5 C71.9 66.7 72.8 66 73.7 65.2 C77.2 61.2 79.6 57.7 80.7 52.3 C79.6 45.7 77.1 39.8 71.6 35.7 C63.2 31.4 55.9 30.5 46.6 30.3 C45.2 30.3 43.9 30.2 42.5 30.2 C31.1 29.9 31.1 29.9 27 35.5 Z " fill="#000000" transform="translate(662.974609375,11.466552734375)"/>
<path d="M0 0 C0.7 -0 1.4 -0 2.2 -0 C3.7 -0 5.2 -0 6.8 0 C9.1 0 11.4 0 13.7 -0 C15.2 -0 16.7 -0 18.2 0 C18.9 -0 19.6 -0 20.3 -0 C25.1 0.1 25.1 0.1 27.3 1.6 C29.1 4 29 5.6 29 8.6 C29 9.7 29 10.7 29 11.8 C29 13 29 14.2 29 15.4 C29 16.7 29 17.9 29 19.2 C29 21.9 29 24.6 29 27.3 C29 31.5 29 35.8 29 40.1 C29.1 49.1 29.1 58.2 29.1 67.3 C29.1 77.1 29.1 86.8 29.2 96.6 C29.2 100.9 29.2 105.1 29.2 109.3 C29.2 112.6 29.2 115.9 29.2 119.1 C29.2 120.3 29.2 121.5 29.2 122.7 C29.2 123.8 29.2 124.8 29.2 126 C29.2 126.9 29.2 127.8 29.2 128.8 C29.7 132 30.7 133.8 32.6 136.4 C35.2 137 35.2 137 38.5 137 C39.7 137 40.9 137.1 42.1 137.1 C43.4 137.1 44.7 137 46.1 137 C47.4 137 48.8 137.1 50.2 137.1 C53.7 137.1 57.3 137.1 60.8 137.1 C66.5 137.1 72.2 137.1 77.9 137.2 C79.9 137.2 81.9 137.2 83.9 137.1 C85.1 137.2 86.3 137.2 87.6 137.2 C88.1 137.2 88.1 137.2 90.8 137.2 C93.6 137.4 95.2 137.9 97.6 139.4 C99.7 142.4 99.8 145 99.8 148.6 C99.8 149.6 99.8 150.6 99.8 151.6 C99.8 152.1 99.8 152.1 99.7 154.6 C99.7 155.7 99.7 156.7 99.7 157.8 C99.7 160.3 99.6 162.9 99.6 165.4 C102.8 164.5 104.3 163.8 106.2 161.1 C109.2 155.2 112 149.3 114.2 143.1 C115.6 139.4 115.6 139.4 117.1 136.5 C118.3 133.9 119.2 131.5 120.1 128.8 C120.9 126.2 121.7 124.3 123.1 122 C125 118.7 125.8 115.4 126.8 111.8 C127.7 109 129.1 106.8 130.6 104.4 C130.9 103.2 131.2 102 131.5 100.8 C132.6 97.4 132.6 97.4 134.6 95.5 C137.2 92.7 137.4 90.3 138 86.5 C138.7 84 139.8 83.2 141.6 81.4 C142.4 79.1 142.4 79.1 143 76.6 C143.9 73.3 144.7 71.2 146.7 68.3 C148.9 65 149.4 62.3 150 58.4 C150.6 56.4 150.6 56.4 152.1 55 C154.2 52.8 154.4 50.8 155.1 47.9 C156 44 156.8 42.2 159.6 39.4 C160.4 37 160.4 37 161.1 34.4 C162.3 29.7 162.3 29.7 164.1 27.9 C166.2 25.8 166.7 23.5 167.6 20.6 C169 16.3 170.5 12.4 172.6 8.4 C173.1 7.1 173.7 5.9 174.2 4.6 C175.6 1.4 175.6 1.4 176.6 0.4 C181 0.1 185.4 0.1 189.7 0 C191.2 0 192.7 0 194.2 -0 C196.3 -0.1 198.4 -0.1 200.6 -0.1 C201.2 -0.1 201.2 -0.1 204.4 -0.2 C207.6 0.4 207.6 0.4 209.5 2.8 C209.6 3.2 209.6 3.2 210.6 5.4 C211 6 211.4 6.7 211.9 7.3 C214.7 11.5 216.4 15.5 217.9 20.4 C218.6 22.4 218.6 22.4 220.2 24.9 C221.9 27.9 222.4 30.8 223 34.2 C223.7 36.8 225 38.3 226.6 40.4 C227.4 42.8 227.4 42.8 228 45.3 C229.2 49.6 230.8 52 233.6 55.4 C234.5 57.7 235.2 60 235.9 62.3 C236.6 64.4 236.6 64.4 238.1 66.4 C240.1 69.1 240.8 72 241.8 75.2 C242.6 77.4 242.6 77.4 244.1 80.4 C245.4 82.9 246.2 85.3 247.1 88 C247.9 90.6 248.7 92.6 250.1 94.9 C251.5 97.3 252.3 99.3 253.1 101.9 C254.2 105.4 255.6 108.2 257.6 111.4 C258.1 112.7 258.6 114.1 259.1 115.5 C259.9 117.8 260.6 119.4 262.2 121.4 C263.9 123.9 264.3 126.4 265 129.3 C265.8 132 267.1 134.2 268.6 136.5 C270.1 139.3 270.9 142.3 271.9 145.3 C272.6 147.4 272.6 147.4 274.2 150 C275.5 152.3 276 153.8 276.5 156.4 C277.2 159.5 277.6 160.5 279.8 163 C281.6 165.4 281.6 165.4 281.5 168.6 C280.6 171.4 280.6 171.4 278.6 173.4 C276.1 173.6 273.7 173.8 271.1 173.8 C270.8 173.8 270.8 173.8 268.9 173.8 C267.3 173.8 265.8 173.8 264.2 173.8 C261.8 173.8 259.4 173.9 257 173.9 C255.5 173.9 254 174 252.4 174 C251.7 174 251 174 250.3 174 C246.4 174 244.8 173.5 241.7 171 C237.6 165.9 234.1 159.9 232.4 153.5 C231.6 150.3 230.5 149 228.6 146.4 C227.9 144.4 227.4 142.4 226.8 140.4 C224.8 137.2 222.1 135.7 218.6 134.4 C214.3 133.9 210 134 205.6 134.1 C204.4 134.1 203.1 134.1 201.8 134.1 C198.6 134.2 195.3 134.3 192 134.4 C190 134.4 188 134.4 185.9 134.4 C182.1 134.5 178.2 134.6 174.3 134.6 C173.1 134.7 171.9 134.7 170.7 134.7 C162.4 134.9 162.4 134.9 158.4 137.3 C156.5 139.5 155.7 141.1 155 143.8 C154.2 146.6 153.6 148.4 152 150.8 C150.5 153.5 150.3 155.1 149.9 158.1 C148.6 164.6 145.9 169.4 140.6 173.4 C135.8 174.5 131.4 174.6 126.6 174.3 C124.4 174.2 122.2 174.2 120 174.2 C108.2 173.9 108.2 173.9 103.6 170.4 C103.3 169.7 102.9 169.1 102.6 168.4 C100.3 168.6 100.3 168.6 97.6 169.4 C97.3 169.7 97.3 169.7 96 171.4 C92.3 174.5 88.8 174 84.1 173.9 C83.2 174 82.2 174 81.2 174 C78.1 174 74.9 174 71.7 174 C69.5 174 67.3 174 65.1 174 C60.5 174 55.9 174 51.3 174 C45.4 174 39.4 174.1 33.5 174.1 C29 174.1 24.4 174.1 19.9 174.1 C17.7 174.1 15.5 174.1 13.3 174.2 C10.3 174.2 7.2 174.2 4.2 174.1 C3.3 174.2 2.4 174.2 1.5 174.2 C0.6 174.2 -0.2 174.2 -1.1 174.1 C-1.8 174.1 -2.5 174.1 -3.3 174.1 C-6.7 172.9 -8.6 170.5 -10.4 167.4 C-11 164.1 -11 164.1 -11 160.5 C-11 159.8 -11 159.1 -11 158.4 C-11.1 156.2 -11 154 -11 151.7 C-11 150.1 -11 148.5 -11 146.9 C-11.1 142.5 -11 138.1 -11 133.8 C-11 129.2 -11 124.6 -11 120.1 C-11 112.4 -11 104.7 -10.9 97 C-10.9 88.2 -10.9 79.3 -10.9 70.4 C-10.9 61.9 -10.9 53.3 -10.9 44.8 C-10.9 41.2 -10.9 37.5 -10.9 33.9 C-10.9 29.6 -10.9 25.4 -10.8 21.1 C-10.8 19.5 -10.8 17.9 -10.8 16.4 C-10.8 14.2 -10.8 12.1 -10.8 9.9 C-10.8 8.7 -10.8 7.5 -10.8 6.3 C-10.4 3.4 -10.4 3.4 -9.1 1.5 C-6.3 -0.3 -3.2 -0 0 0 Z M186.9 58.3 C185.5 61.6 184.4 64.9 183.3 68.3 C182.6 70.4 182.6 70.4 181 72.4 C179.1 75.1 178.8 77.8 178.2 81 C177.6 83.4 176.7 85.2 175.5 87.4 C173.3 91.5 172.3 95.7 172.6 100.4 C176.2 104 181.9 102.9 186.8 103.1 C188.8 103.1 190.8 103.2 192.9 103.3 C194.1 103.4 195.4 103.4 196.7 103.4 C197.9 103.5 199.1 103.5 200.3 103.6 C203.7 103.4 206.4 102.6 209.6 101.4 C210.6 97.7 210.8 95.9 209.3 92.3 C208.3 90.6 207.2 88.8 206 87.1 C204.7 84.6 204.2 82.8 203.7 80 C202.9 76.2 201.6 73.6 199.5 70.3 C198 67.2 197.6 63.9 197.1 60.5 C196.6 58.4 196.6 58.4 194.6 56.4 C189.3 55.6 189.3 55.6 186.9 58.3 Z " fill="#000000" transform="translate(816.40625,11.6015625)"/>
<path d="M0 0 C0.5 0 0.5 0 2.9 0 C4 -0 5.1 -0 6.2 -0 C6.8 -0 6.8 -0 9.8 0 C11.1 0 12.3 -0 13.6 -0 C17.1 -0 20.6 -0 24 0 C27.7 0 31.3 0 34.9 0 C41 0 47.1 0 53.2 0.1 C60.2 0.1 67.2 0.1 74.3 0.1 C81 0.1 87.8 0.1 94.6 0.1 C97.4 0.2 100.3 0.2 103.2 0.2 C107.2 0.2 111.2 0.2 115.3 0.2 C116.5 0.2 117.7 0.2 118.9 0.2 C120 0.2 121.1 0.2 122.2 0.2 C123.2 0.2 124.1 0.2 125.1 0.2 C128.1 0.7 129.5 1.5 131.6 3.6 C132.5 7.7 132.3 11.8 132.2 16 C132.3 17.1 132.3 18.3 132.3 19.4 C132.3 20.5 132.3 21.6 132.3 22.8 C132.3 23.8 132.4 24.8 132.4 25.8 C131.5 29.1 130.2 30.7 127.4 32.7 C124.1 34.4 120.8 34.2 117.1 34 C116.3 34 115.5 34 114.7 34 C112.1 33.9 109.6 33.8 107 33.7 C104.5 33.7 102 33.6 99.4 33.6 C97.8 33.5 96.2 33.5 94.7 33.4 C90 33.3 87.4 33.9 83.6 36.6 C83 36.6 82.3 36.6 81.6 36.6 C81.6 37.3 81.6 37.9 81.6 38.6 C81.7 54.5 81.7 70.4 81.8 86.3 C81.8 94 81.8 101.6 81.8 109.3 C81.9 116 81.9 122.7 81.9 129.4 C81.9 133 81.9 136.5 81.9 140.1 C82 144 82 148 82 152 C82 153.1 82 154.3 82 155.5 C82 161.9 81.4 166.8 78.6 172.6 C74.2 174.8 68.1 173.8 63.2 173.8 C62 173.8 60.7 173.8 59.5 173.8 C58.9 173.8 58.9 173.8 55.8 173.9 C54.7 173.9 53.6 173.9 52.5 173.9 C49.6 173.6 48 173.3 45.6 171.6 C43.6 168.4 43.4 165.9 43.4 162.2 C43.4 161.6 43.4 161.6 43.3 158.8 C43.3 158.2 43.3 158.2 43.3 155.2 C43.3 153.2 43.3 151.3 43.3 149.3 C43.3 147.2 43.3 145.1 43.3 143 C43.3 138.7 43.3 134.3 43.3 129.9 C43.2 119 43.2 108.2 43.2 97.3 C43.1 88.9 43.1 80.4 43.1 72 C43.1 67.6 43.1 63.3 43.1 58.9 C43.1 55.6 43 52.3 43 48.9 C43 47.7 43 46.5 43 45.3 C43 44.2 43 43.1 43 41.9 C43 41 43 40 43 39 C42.6 36.6 42.6 36.6 41.3 34.8 C38.2 32.7 34.4 33.3 30.7 33.4 C29.8 33.4 29 33.5 28.1 33.5 C24.3 33.5 20.6 33.6 16.8 33.7 C14.1 33.7 11.4 33.8 8.6 33.8 C8.2 33.8 8.2 33.8 6.1 33.9 C2.7 33.9 0.2 33.9 -2.9 32.5 C-4.9 30 -5 28.2 -5.1 25 C-5.1 23.9 -5.2 22.8 -5.2 21.7 C-5.3 20.6 -5.3 19.4 -5.3 18.2 C-5.4 17.7 -5.4 17.7 -5.5 14.8 C-5.9 1.5 -5.9 1.5 0 0 Z " fill="#000000" transform="translate(1084.3882284164429,11.376380920410156)"/>
<path d="M0 0 C0.9 -0 1.9 -0 2.9 -0 C3.9 -0 5 -0 6 -0 C7.1 -0 8.2 -0 9.4 -0 C13 -0.1 16.6 -0.1 20.3 -0.1 C22.8 -0.1 25.3 -0.1 27.8 -0.1 C33.1 -0.1 38.4 -0.1 43.7 -0.1 C49.8 -0.1 55.9 -0.1 62.1 -0.2 C67.9 -0.2 73.8 -0.2 79.7 -0.2 C82.2 -0.2 84.7 -0.2 87.2 -0.2 C90.7 -0.2 94.2 -0.2 97.7 -0.2 C98.2 -0.2 98.2 -0.2 100.8 -0.3 C107.8 -0.2 107.8 -0.2 111.1 2.1 C113.8 6.4 113.1 11.3 113.1 16.1 C113.1 16.7 113.1 16.7 113.1 19.4 C113.1 28.2 113.1 28.2 110.1 32 C106.2 35.4 104.3 35.4 99.1 35.3 C98.5 35.3 97.8 35.3 97.1 35.3 C95.7 35.3 94.3 35.3 92.8 35.3 C90.6 35.2 88.3 35.2 86.1 35.2 C79.7 35.1 73.2 35.1 66.8 35 C62.9 35 59 34.9 55 34.9 C53.5 34.9 52.1 34.9 50.6 34.9 C48.5 34.8 46.4 34.8 44.3 34.8 C43.1 34.8 41.9 34.8 40.7 34.8 C36.8 35.4 35.2 36.5 32.5 39.3 C31.9 41.9 31.9 41.9 31.9 44.8 C31.9 45.4 31.9 45.4 31.9 48.1 C31.9 49.2 32 50.3 32 51.4 C32 52.5 32 53.6 32 54.8 C32.1 60.8 32.1 60.8 32.5 63.3 C36.1 65.7 37.7 65.5 42 65.5 C42.7 65.5 43.3 65.5 44 65.5 C45.4 65.5 46.9 65.5 48.3 65.5 C50.5 65.5 52.8 65.6 55.1 65.6 C61.5 65.6 67.9 65.6 74.3 65.6 C78.2 65.7 82.2 65.7 86.1 65.7 C87.6 65.7 89.1 65.7 90.6 65.7 C92.7 65.7 94.8 65.7 96.8 65.8 C98 65.8 99.2 65.8 100.5 65.8 C104.1 66.4 105.3 67.3 107.5 70.3 C108 73.2 108 73.2 108 76.6 C108 77.3 108 77.3 108 80.4 C108 81.7 108 82.9 108 84.3 C108 84.9 108 84.9 108 88.2 C108 89.4 108 90.6 108 91.9 C108 93 108 94.1 108 95.3 C107.4 99 106.4 100 103.5 102.3 C100.5 102.8 100.5 102.8 96.8 102.8 C96.2 102.8 95.5 102.8 94.9 102.8 C92.7 102.8 90.5 102.8 88.3 102.8 C86.8 102.8 85.3 102.8 83.8 102.8 C79.8 102.9 75.9 102.9 71.9 102.9 C65.5 102.9 59.1 102.9 52.8 103 C50.5 103 48.3 103 46.1 103 C44.7 103 43.4 103 42 103 C40.8 103 39.6 103 38.4 103 C35.5 103.3 35.5 103.3 32.5 105.3 C31.7 108.9 31.8 112.7 31.6 116.5 C31.6 117 31.6 117 31.4 119.6 C31.2 125.6 31.4 130 34.5 135.3 C37.5 136.8 40.2 136.4 43.6 136.4 C43.9 136.4 43.9 136.4 45.8 136.4 C47.3 136.4 48.9 136.4 50.5 136.4 C53 136.4 55.5 136.5 58 136.5 C65.1 136.5 72.2 136.6 79.3 136.6 C83.7 136.6 88 136.6 92.4 136.7 C94 136.7 95.7 136.7 97.4 136.7 C99.7 136.7 102 136.7 104.3 136.7 C105.6 136.7 106.9 136.7 108.3 136.8 C111.5 137.3 111.5 137.3 113.4 139.1 C114.8 141.9 114.9 144 114.9 147.2 C114.9 148.3 114.9 149.4 114.9 150.6 C114.9 151.8 114.9 153 114.9 154.2 C114.9 155.4 114.9 156.6 114.9 157.8 C114.9 158.9 114.9 160.1 114.9 161.2 C114.9 162.3 114.9 163.3 114.9 164.4 C114.4 168 113.1 170.7 110.5 173.3 C109.1 173.4 107.6 173.4 106.2 173.4 C105.2 173.4 104.3 173.4 103.3 173.4 C102.3 173.5 101.2 173.5 100.2 173.5 C99.1 173.5 98 173.5 96.9 173.5 C93.3 173.5 89.7 173.5 86.1 173.5 C84.8 173.5 83.6 173.6 82.4 173.6 C76.5 173.6 70.7 173.6 64.9 173.6 C58.1 173.6 51.4 173.7 44.7 173.7 C38.8 173.8 33 173.8 27.2 173.8 C24.7 173.8 22.2 173.8 19.7 173.8 C16.3 173.9 12.8 173.9 9.3 173.9 C8.3 173.9 7.3 173.9 6.2 173.9 C5.3 173.9 4.3 173.9 3.3 173.9 C2.5 173.9 1.7 173.9 0.9 173.9 C-2.8 172.9 -4.2 171.2 -6.5 168.3 C-7.1 165.1 -7.1 165.1 -7.1 161.4 C-7.1 160.7 -7.1 160 -7.1 159.3 C-7.1 157 -7.1 154.8 -7.1 152.5 C-7.1 150.9 -7.1 149.2 -7.1 147.6 C-7.1 143.2 -7.1 138.7 -7.1 134.3 C-7.1 129.7 -7.1 125 -7.1 120.4 C-7.1 112.6 -7 104.9 -7 97.1 C-6.9 88.1 -6.9 79.1 -6.9 70.1 C-6.9 60.5 -6.9 50.9 -6.9 41.4 C-6.9 38.6 -6.9 35.8 -6.9 33.1 C-6.9 28.7 -6.8 24.4 -6.8 20.1 C-6.8 18.5 -6.8 16.9 -6.8 15.3 C-6.8 13.1 -6.8 10.9 -6.8 8.8 C-6.8 7.6 -6.8 6.3 -6.8 5.1 C-6.3 0.3 -4.3 0 0 0 Z " fill="#000000" transform="translate(1242.5035095214844,11.732574462890625)"/>
</svg>
